<mxfile host="app.diagrams.net" modified="2024-06-03T22:19:57.253Z" agent="Mozilla/5.0 (Windows NT 10.0; Win64; x64) AppleWebKit/537.36 (KHTML, like Gecko) Chrome/124.0.0.0 Safari/537.36" etag="4ln_QTtU1RDjdiNHsksX" version="24.4.10" type="onedrive">
  <diagram name="페이지-1" id="yqRvX1OuCHYJTOkS9bNN">
    <mxGraphModel grid="1" page="1" gridSize="10" guides="1" tooltips="1" connect="1" arrows="1" fold="1" pageScale="1" pageWidth="827" pageHeight="1169" math="0" shadow="0">
      <root>
        <mxCell id="0" />
        <mxCell id="1" parent="0" />
        <mxCell id="b-f97INTa11XTr_-paEQ-9" value="" style="rounded=0;whiteSpace=wrap;html=1;" vertex="1" parent="1">
          <mxGeometry x="510" width="270" height="370" as="geometry" />
        </mxCell>
        <mxCell id="b-f97INTa11XTr_-paEQ-10" value="&lt;font style=&quot;font-size: 24px;&quot;&gt;Statistics&lt;/font&gt;" style="rounded=0;whiteSpace=wrap;html=1;" vertex="1" parent="1">
          <mxGeometry x="572.5" y="10" width="145" height="30" as="geometry" />
        </mxCell>
        <mxCell id="b-f97INTa11XTr_-paEQ-11" value="Here are your game stats" style="rounded=0;whiteSpace=wrap;html=1;" vertex="1" parent="1">
          <mxGeometry x="550" y="50" width="200" height="20" as="geometry" />
        </mxCell>
        <mxCell id="b-f97INTa11XTr_-paEQ-12" value="" style="rounded=0;whiteSpace=wrap;html=1;" vertex="1" parent="1">
          <mxGeometry x="520" y="80" width="250" height="240" as="geometry" />
        </mxCell>
        <mxCell id="b-f97INTa11XTr_-paEQ-13" value="&lt;font style=&quot;font-size: 18px;&quot;&gt;Dismiss&lt;/font&gt;" style="rounded=0;whiteSpace=wrap;html=1;" vertex="1" parent="1">
          <mxGeometry x="595" y="330" width="100" height="30" as="geometry" />
        </mxCell>
        <mxCell id="b-f97INTa11XTr_-paEQ-15" value="" style="rounded=0;whiteSpace=wrap;html=1;" vertex="1" parent="1">
          <mxGeometry x="520" y="80" width="250" height="40" as="geometry" />
        </mxCell>
        <mxCell id="b-f97INTa11XTr_-paEQ-17" value="" style="rounded=0;whiteSpace=wrap;html=1;" vertex="1" parent="1">
          <mxGeometry x="520" y="180" width="250" height="40" as="geometry" />
        </mxCell>
        <mxCell id="b-f97INTa11XTr_-paEQ-18" value="" style="rounded=0;whiteSpace=wrap;html=1;" vertex="1" parent="1">
          <mxGeometry x="520" y="230" width="250" height="40" as="geometry" />
        </mxCell>
        <mxCell id="b-f97INTa11XTr_-paEQ-19" value="" style="rounded=0;whiteSpace=wrap;html=1;" vertex="1" parent="1">
          <mxGeometry x="520" y="280" width="250" height="40" as="geometry" />
        </mxCell>
        <mxCell id="b-f97INTa11XTr_-paEQ-20" value="" style="rounded=0;whiteSpace=wrap;html=1;" vertex="1" parent="1">
          <mxGeometry x="520" y="130" width="250" height="40" as="geometry" />
        </mxCell>
        <mxCell id="b-f97INTa11XTr_-paEQ-21" value="Total" style="rounded=0;whiteSpace=wrap;html=1;" vertex="1" parent="1">
          <mxGeometry x="520" y="130" width="70" height="40" as="geometry" />
        </mxCell>
        <mxCell id="b-f97INTa11XTr_-paEQ-22" value="Worst score" style="rounded=0;whiteSpace=wrap;html=1;" vertex="1" parent="1">
          <mxGeometry x="520" y="230" width="70" height="40" as="geometry" />
        </mxCell>
        <mxCell id="b-f97INTa11XTr_-paEQ-23" value="Best score" style="rounded=0;whiteSpace=wrap;html=1;" vertex="1" parent="1">
          <mxGeometry x="520" y="180" width="70" height="40" as="geometry" />
        </mxCell>
        <mxCell id="b-f97INTa11XTr_-paEQ-24" value="User" style="rounded=0;whiteSpace=wrap;html=1;" vertex="1" parent="1">
          <mxGeometry x="595" y="80" width="70" height="40" as="geometry" />
        </mxCell>
        <mxCell id="b-f97INTa11XTr_-paEQ-25" value="Average score" style="rounded=0;whiteSpace=wrap;html=1;" vertex="1" parent="1">
          <mxGeometry x="520" y="280" width="70" height="40" as="geometry" />
        </mxCell>
        <mxCell id="b-f97INTa11XTr_-paEQ-26" value="Computer" style="rounded=0;whiteSpace=wrap;html=1;" vertex="1" parent="1">
          <mxGeometry x="690" y="80" width="70" height="40" as="geometry" />
        </mxCell>
        <mxCell id="b-f97INTa11XTr_-paEQ-27" value="8" style="rounded=0;whiteSpace=wrap;html=1;" vertex="1" parent="1">
          <mxGeometry x="690" y="180" width="70" height="40" as="geometry" />
        </mxCell>
        <mxCell id="b-f97INTa11XTr_-paEQ-28" value="13" style="rounded=0;whiteSpace=wrap;html=1;" vertex="1" parent="1">
          <mxGeometry x="595" y="180" width="70" height="40" as="geometry" />
        </mxCell>
        <mxCell id="b-f97INTa11XTr_-paEQ-29" value="13" style="rounded=0;whiteSpace=wrap;html=1;" vertex="1" parent="1">
          <mxGeometry x="595" y="130" width="70" height="40" as="geometry" />
        </mxCell>
        <mxCell id="b-f97INTa11XTr_-paEQ-30" value="8" style="rounded=0;whiteSpace=wrap;html=1;" vertex="1" parent="1">
          <mxGeometry x="690" y="130" width="70" height="40" as="geometry" />
        </mxCell>
        <mxCell id="b-f97INTa11XTr_-paEQ-31" value="13" style="rounded=0;whiteSpace=wrap;html=1;" vertex="1" parent="1">
          <mxGeometry x="595" y="230" width="70" height="40" as="geometry" />
        </mxCell>
        <mxCell id="b-f97INTa11XTr_-paEQ-32" value="8.0" style="rounded=0;whiteSpace=wrap;html=1;" vertex="1" parent="1">
          <mxGeometry x="690" y="280" width="70" height="40" as="geometry" />
        </mxCell>
        <mxCell id="b-f97INTa11XTr_-paEQ-33" value="8" style="rounded=0;whiteSpace=wrap;html=1;" vertex="1" parent="1">
          <mxGeometry x="690" y="230" width="70" height="40" as="geometry" />
        </mxCell>
        <mxCell id="b-f97INTa11XTr_-paEQ-34" value="13.0" style="rounded=0;whiteSpace=wrap;html=1;" vertex="1" parent="1">
          <mxGeometry x="595" y="280" width="70" height="40" as="geometry" />
        </mxCell>
        <mxCell id="JQcDmOJBhlWZ3hepFA_i-9" value="" style="rounded=0;whiteSpace=wrap;html=1;" vertex="1" parent="1">
          <mxGeometry y="330" width="420" height="340" as="geometry" />
        </mxCell>
        <mxCell id="JQcDmOJBhlWZ3hepFA_i-10" value="&lt;font style=&quot;font-size: 20px;&quot;&gt;What team belong to this mascot(stadium) ?&lt;/font&gt;" style="rounded=0;whiteSpace=wrap;html=1;" vertex="1" parent="1">
          <mxGeometry x="10" y="404" width="400" height="40" as="geometry" />
        </mxCell>
        <mxCell id="J0UYypzOkgUtK2MUQirk-9" value="&lt;span style=&quot;font-size: 18px;&quot;&gt;Start Over&lt;/span&gt;" style="rounded=0;whiteSpace=wrap;html=1;" vertex="1" parent="1">
          <mxGeometry x="291" y="615" width="119" height="45" as="geometry" />
        </mxCell>
        <mxCell id="2iw-JXAOn0ELJmdQw6GL-2" value="&lt;font style=&quot;font-size: 24px;&quot;&gt;Stadium+Mascot Quiz&lt;/font&gt;" style="rounded=0;whiteSpace=wrap;html=1;" vertex="1" parent="1">
          <mxGeometry x="10" y="220" width="380" height="30" as="geometry" />
        </mxCell>
        <mxCell id="2iw-JXAOn0ELJmdQw6GL-6" value="" style="rounded=0;whiteSpace=wrap;html=1;" vertex="1" parent="1">
          <mxGeometry width="400" height="290" as="geometry" />
        </mxCell>
        <mxCell id="2iw-JXAOn0ELJmdQw6GL-7" value="&lt;font style=&quot;font-size: 24px;&quot;&gt;Stadium+Mascot Quiz&lt;/font&gt;" style="rounded=0;whiteSpace=wrap;html=1;" vertex="1" parent="1">
          <mxGeometry x="10" y="10" width="380" height="30" as="geometry" />
        </mxCell>
        <mxCell id="2iw-JXAOn0ELJmdQw6GL-8" value="&lt;font style=&quot;font-size: 36px;&quot;&gt;Some explain&amp;nbsp;&lt;/font&gt;&lt;div&gt;&lt;font style=&quot;font-size: 36px;&quot;&gt;about&amp;nbsp; Quiz&amp;nbsp;&lt;/font&gt;&lt;/div&gt;" style="rounded=0;whiteSpace=wrap;html=1;" vertex="1" parent="1">
          <mxGeometry x="10" y="50" width="380" height="150" as="geometry" />
        </mxCell>
        <mxCell id="2iw-JXAOn0ELJmdQw6GL-9" value="&lt;span style=&quot;font-size: 18px;&quot;&gt;Typing how many rounds&amp;nbsp;&lt;/span&gt;&lt;div&gt;&lt;span style=&quot;font-size: 18px;&quot;&gt;you want&lt;/span&gt;&lt;/div&gt;" style="rounded=0;whiteSpace=wrap;html=1;" vertex="1" parent="1">
          <mxGeometry x="10" y="210" width="260" height="60" as="geometry" />
        </mxCell>
        <mxCell id="2iw-JXAOn0ELJmdQw6GL-10" value="&lt;span style=&quot;font-size: 18px;&quot;&gt;Start&lt;/span&gt;" style="rounded=0;whiteSpace=wrap;html=1;" vertex="1" parent="1">
          <mxGeometry x="280" y="210" width="110" height="60" as="geometry" />
        </mxCell>
        <UserObject label="&lt;b style=&quot;font-weight:normal;&quot; id=&quot;docs-internal-guid-83566680-7fff-1d35-c393-2da789ce0250&quot;&gt;&lt;img width=&quot;305px;&quot; height=&quot;246px;&quot; src=&quot;https://lh7-us.googleusercontent.com/XCB_E3hQbMpxysL9zACt6B7SENqmEIHfnB5hMlwr2ymR6BKWmcMHPKCc3GlZkQezQqXCnO3aWTHhWHviCAiNlSkDcxU4lkiNVlyzWrOrj5U9gGLzzTBOk2U_wknGLQ9m6tXa9fmxrsWb62ih5xbvM4GcUQ=s2048&quot;&gt;&lt;/b&gt;" link="&lt;b style=&quot;font-weight:normal;&quot; id=&quot;docs-internal-guid-83566680-7fff-1d35-c393-2da789ce0250&quot;&gt;&lt;img width=&quot;305px;&quot; height=&quot;246px;&quot; src=&quot;https://lh7-us.googleusercontent.com/XCB_E3hQbMpxysL9zACt6B7SENqmEIHfnB5hMlwr2ymR6BKWmcMHPKCc3GlZkQezQqXCnO3aWTHhWHviCAiNlSkDcxU4lkiNVlyzWrOrj5U9gGLzzTBOk2U_wknGLQ9m6tXa9fmxrsWb62ih5xbvM4GcUQ=s2048&quot;&gt;&lt;/b&gt;" id="2iw-JXAOn0ELJmdQw6GL-11">
          <mxCell style="text;whiteSpace=wrap;html=1;" vertex="1" parent="1">
            <mxGeometry x="484" y="410" width="340" height="270" as="geometry" />
          </mxCell>
        </UserObject>
        <mxCell id="2iw-JXAOn0ELJmdQw6GL-12" value="&lt;font style=&quot;font-size: 24px;&quot;&gt;Round # of #&lt;/font&gt;" style="rounded=0;whiteSpace=wrap;html=1;" vertex="1" parent="1">
          <mxGeometry x="10" y="340" width="400" height="40" as="geometry" />
        </mxCell>
        <mxCell id="2iw-JXAOn0ELJmdQw6GL-16" value="&lt;span style=&quot;font-size: 18px;&quot;&gt;2 Team name&lt;/span&gt;" style="rounded=0;whiteSpace=wrap;html=1;" vertex="1" parent="1">
          <mxGeometry x="220" y="465" width="190" height="65" as="geometry" />
        </mxCell>
        <mxCell id="y0r5tutsLmamROyHlrDG-3" value="&lt;span style=&quot;font-size: 18px;&quot;&gt;1 Team name&lt;/span&gt;" style="rounded=0;whiteSpace=wrap;html=1;" vertex="1" parent="1">
          <mxGeometry x="10" y="465" width="190" height="55" as="geometry" />
        </mxCell>
        <mxCell id="y0r5tutsLmamROyHlrDG-4" value="&lt;span style=&quot;font-size: 18px;&quot;&gt;3 Team name&lt;/span&gt;" style="rounded=0;whiteSpace=wrap;html=1;" vertex="1" parent="1">
          <mxGeometry x="10" y="545" width="190" height="55" as="geometry" />
        </mxCell>
        <mxCell id="y0r5tutsLmamROyHlrDG-5" value="&lt;span style=&quot;font-size: 18px;&quot;&gt;4 Team name&lt;/span&gt;" style="rounded=0;whiteSpace=wrap;html=1;" vertex="1" parent="1">
          <mxGeometry x="220" y="545" width="190" height="55" as="geometry" />
        </mxCell>
        <mxCell id="y0r5tutsLmamROyHlrDG-6" value="&lt;span style=&quot;font-size: 18px;&quot;&gt;Statistics&lt;/span&gt;" style="rounded=0;whiteSpace=wrap;html=1;" vertex="1" parent="1">
          <mxGeometry x="10" y="615" width="119" height="45" as="geometry" />
        </mxCell>
        <mxCell id="y0r5tutsLmamROyHlrDG-7" value="&lt;span style=&quot;font-size: 18px;&quot;&gt;Help&lt;/span&gt;" style="rounded=0;whiteSpace=wrap;html=1;" vertex="1" parent="1">
          <mxGeometry x="150.5" y="615" width="119" height="45" as="geometry" />
        </mxCell>
      </root>
    </mxGraphModel>
  </diagram>
</mxfile>
